<?xml version="1.0" encoding="iso-8859-1"?>
<!-- Uploaded to: SVG Repo, www.svgrepo.com, Generator: SVG Repo Mixer Tools -->
<svg height="800px" width="800px" version="1.1" id="Layer_1" xmlns="http://www.w3.org/2000/svg" xmlns:xlink="http://www.w3.org/1999/xlink" 
	 viewBox="0 0 504.986 504.986" xml:space="preserve">
<circle style="fill:#56ACE0;" cx="252.493" cy="252.493" r="170.433"/>
<g>
	<path style="fill:#194F82;" d="M252.493,28.055c47.693,0,92.581,14.729,130.455,42.082h-21.742
		c-7.715,0-14.027,6.312-14.027,14.027s6.312,14.027,14.027,14.027h59.616c7.715,0,14.027-6.312,14.027-14.027V24.548
		c0-7.715-6.312-14.027-14.027-14.027c-7.715,0-14.027,6.312-14.027,14.027v28.055C362.608,18.236,308.603,0,252.493,0
		C112.921,0,0,112.921,0,252.493c0,7.715,6.312,14.027,14.027,14.027s14.027-6.312,14.027-14.027
		C28.055,129.052,129.052,28.055,252.493,28.055z"/>
	<path style="fill:#194F82;" d="M490.959,238.466c-7.715,0-14.027,6.312-14.027,14.027c0,123.441-100.997,224.438-224.438,224.438
		c-47.693,0-92.581-14.729-130.455-42.082h21.742c7.715,0,14.027-6.312,14.027-14.027c0-7.715-6.312-14.027-14.027-14.027H84.164
		c-7.715,0-14.027,6.312-14.027,14.027v59.616c0,7.715,6.312,14.027,14.027,14.027s14.027-6.312,14.027-14.027v-28.055
		c44.186,34.367,98.192,52.603,154.301,52.603c139.573,0,252.493-112.921,252.493-252.493
		C504.986,244.778,498.674,238.466,490.959,238.466z"/>
	<path style="fill:#194F82;" d="M205.501,265.118c35.068-17.534,38.575-46.992,38.575-56.811c0-28.756-23.847-52.603-53.304-52.603
		s-53.304,23.847-53.304,53.304c0,8.416,6.312,15.43,15.43,15.43c8.416,0,15.43-6.312,15.43-15.43
		c0-12.625,10.521-22.444,22.444-22.444c12.625,0,22.444,10.521,22.444,22.444l0,0c0,4.208-2.104,18.937-21.742,29.458
		c-53.304,26.652-54.005,79.255-54.005,81.359c0,8.416,6.312,15.43,15.43,15.43h75.748c8.416,0,15.43-6.312,15.43-15.43
		c0-8.416-6.312-15.43-15.43-15.43h-57.512C175.342,292.471,184.46,275.638,205.501,265.118z"/>
	<path style="fill:#194F82;" d="M347.178,334.553c8.416,0,14.729-7.014,14.729-14.729v-22.444h7.715
		c8.416,0,15.43-7.715,14.729-16.833c-0.701-7.715-8.416-13.326-16.132-13.326h-6.312v-96.789c0-8.416-6.312-14.729-15.43-14.729
		h-7.715c-5.611,0-10.521,2.805-13.326,7.715l-59.616,112.219c-5.611,9.819,2.104,21.742,13.326,21.742h51.901v21.742
		C331.748,327.54,338.762,335.255,347.178,334.553z M304.395,267.222l27.353-51.2v51.2H304.395z"/>
</g>
</svg>