<svg width="60" height="60" viewBox="0 0 60 60" fill="none" xmlns="http://www.w3.org/2000/svg">
<g filter="url(#filter0_d_3_139)">
<path d="M30 4C46.77 4 52 10.033 52 26C52 41.967 46.77 48 30 48C13.23 48 8 41.967 8 26C8 10.033 13.23 4 30 4Z" fill="#F4F4F4"/>
</g>
<mask id="mask0_3_139" style="mask-type:alpha" maskUnits="userSpaceOnUse" x="8" y="4" width="44" height="44">
<path d="M30 4C46.77 4 52 10.033 52 26C52 41.967 46.77 48 30 48C13.23 48 8 41.967 8 26C8 10.033 13.23 4 30 4Z" fill="#F4F4F4"/>
</mask>
<g mask="url(#mask0_3_139)">
<path d="M15 7H99V52H15V7Z" fill="white"/>
<path d="M15 7H99V10.462H15V7ZM15 13.923H99V17.385H15V13.923ZM15 20.846H99V24.308H15V20.846ZM15 27.769H99V31.231H15V27.769ZM15 34.692H99V38.154H15V34.692ZM15 41.615H99V45.077H15V41.615ZM15 48.538H99V52H15V48.538Z" fill="#B22234"/>
<path d="M15 7H47V32H15V7Z" fill="#3C3B6E"/>
<path d="M18.276 8L19.058 10.618L17.01 9H19.541L17.493 10.618L18.276 8Z" fill="white"/>
<path d="M18.276 13.065L19.058 15.683L17.01 14.065H19.541L17.493 15.683L18.276 13.065Z" fill="white"/>
<path d="M18.276 18.13L19.058 20.748L17.01 19.13H19.541L17.493 20.748L18.276 18.13Z" fill="white"/>
<path d="M18.276 23.196L19.058 25.814L17.01 24.196H19.541L17.493 25.814L18.276 23.196Z" fill="white"/>
<path d="M18.276 28.262L19.058 30.88L17.01 29.262H19.541L17.493 30.88L18.276 28.262Z" fill="white"/>
<path d="M21.016 10.533L21.798 13.151L19.75 11.533H22.281L20.233 13.151L21.016 10.533Z" fill="white"/>
<path d="M21.016 15.598L21.798 18.216L19.75 16.598H22.281L20.233 18.216L21.016 15.598Z" fill="white"/>
<path d="M21.016 20.663L21.798 23.281L19.75 21.663H22.281L20.233 23.281L21.016 20.663Z" fill="white"/>
<path d="M21.016 25.729L21.798 28.347L19.75 26.729H22.281L20.233 28.347L21.016 25.729Z" fill="white"/>
<path d="M23.756 8L24.538 10.618L22.49 9H25.021L22.973 10.618L23.756 8Z" fill="white"/>
<path d="M23.756 13.065L24.538 15.683L22.49 14.065H25.021L22.973 15.683L23.756 13.065Z" fill="white"/>
<path d="M23.756 18.13L24.538 20.748L22.49 19.13H25.021L22.973 20.748L23.756 18.13Z" fill="white"/>
<path d="M23.756 23.196L24.538 25.814L22.49 24.196H25.021L22.973 25.814L23.756 23.196Z" fill="white"/>
<path d="M23.756 28.262L24.538 30.88L22.49 29.262H25.021L22.973 30.88L23.756 28.262Z" fill="white"/>
<path d="M26.496 10.533L27.278 13.151L25.23 11.533H27.761L25.713 13.151L26.496 10.533Z" fill="white"/>
<path d="M26.496 15.598L27.278 18.216L25.23 16.598H27.761L25.713 18.216L26.496 15.598Z" fill="white"/>
<path d="M26.496 20.663L27.278 23.281L25.23 21.663H27.761L25.713 23.281L26.496 20.663Z" fill="white"/>
<path d="M26.496 25.729L27.278 28.347L25.23 26.729H27.761L25.713 28.347L26.496 25.729Z" fill="white"/>
<path d="M29.235 8L30.017 10.618L27.969 9H30.5L28.452 10.618L29.235 8Z" fill="white"/>
<path d="M29.235 13.065L30.017 15.683L27.969 14.065H30.5L28.452 15.683L29.235 13.065Z" fill="white"/>
<path d="M29.235 18.13L30.017 20.748L27.969 19.13H30.5L28.452 20.748L29.235 18.13Z" fill="white"/>
<path d="M29.235 23.196L30.017 25.814L27.969 24.196H30.5L28.452 25.814L29.235 23.196Z" fill="white"/>
<path d="M29.235 28.262L30.017 30.88L27.969 29.262H30.5L28.452 30.88L29.235 28.262Z" fill="white"/>
<path d="M31.975 10.533L32.757 13.151L30.709 11.533H33.24L31.192 13.151L31.975 10.533Z" fill="white"/>
<path d="M31.975 15.598L32.757 18.216L30.709 16.598H33.24L31.192 18.216L31.975 15.598Z" fill="white"/>
<path d="M31.975 20.663L32.757 23.281L30.709 21.663H33.24L31.192 23.281L31.975 20.663Z" fill="white"/>
<path d="M31.975 25.729L32.757 28.347L30.709 26.729H33.24L31.192 28.347L31.975 25.729Z" fill="white"/>
<path d="M34.715 8L35.497 10.618L33.449 9H35.98L33.932 10.618L34.715 8Z" fill="white"/>
<path d="M34.715 13.065L35.497 15.683L33.449 14.065H35.98L33.932 15.683L34.715 13.065Z" fill="white"/>
<path d="M34.715 18.13L35.497 20.748L33.449 19.13H35.98L33.932 20.748L34.715 18.13Z" fill="white"/>
<path d="M34.715 23.196L35.497 25.814L33.449 24.196H35.98L33.932 25.814L34.715 23.196Z" fill="white"/>
<path d="M34.715 28.262L35.497 30.88L33.449 29.262H35.98L33.932 30.88L34.715 28.262Z" fill="white"/>
<path d="M37.455 10.533L38.237 13.151L36.189 11.533H38.72L36.672 13.151L37.455 10.533Z" fill="white"/>
<path d="M37.455 15.598L38.237 18.216L36.189 16.598H38.72L36.672 18.216L37.455 15.598Z" fill="white"/>
<path d="M37.455 20.663L38.237 23.281L36.189 21.663H38.72L36.672 23.281L37.455 20.663Z" fill="white"/>
<path d="M37.455 25.729L38.237 28.347L36.189 26.729H38.72L36.672 28.347L37.455 25.729Z" fill="white"/>
<path d="M40.193 8L40.975 10.618L38.927 9H41.458L39.41 10.618L40.193 8Z" fill="white"/>
<path d="M40.193 13.065L40.975 15.683L38.927 14.065H41.458L39.41 15.683L40.193 13.065Z" fill="white"/>
<path d="M40.193 18.13L40.975 20.748L38.927 19.13H41.458L39.41 20.748L40.193 18.13Z" fill="white"/>
<path d="M40.193 23.196L40.975 25.814L38.927 24.196H41.458L39.41 25.814L40.193 23.196Z" fill="white"/>
<path d="M40.193 28.262L40.975 30.88L38.927 29.262H41.458L39.41 30.88L40.193 28.262Z" fill="white"/>
<path d="M42.933 10.533L43.715 13.151L41.667 11.533H44.198L42.15 13.151L42.933 10.533Z" fill="white"/>
<path d="M42.933 15.598L43.715 18.216L41.667 16.598H44.198L42.15 18.216L42.933 15.598Z" fill="white"/>
<path d="M42.933 20.663L43.715 23.281L41.667 21.663H44.198L42.15 23.281L42.933 20.663Z" fill="white"/>
<path d="M42.933 25.729L43.715 28.347L41.667 26.729H44.198L42.15 28.347L42.933 25.729Z" fill="white"/>
<path d="M45.673 8L46.455 10.618L44.407 9H46.938L44.89 10.618L45.673 8Z" fill="white"/>
<path d="M45.673 13.065L46.455 15.683L44.407 14.065H46.938L44.89 15.683L45.673 13.065Z" fill="white"/>
<path d="M45.673 18.13L46.455 20.748L44.407 19.13H46.938L44.89 20.748L45.673 18.13Z" fill="white"/>
<path d="M45.673 23.196L46.455 25.814L44.407 24.196H46.938L44.89 25.814L45.673 23.196Z" fill="white"/>
<path d="M45.673 28.262L46.455 30.88L44.407 29.262H46.938L44.89 30.88L45.673 28.262Z" fill="white"/>
</g>
<g filter="url(#filter1_d_3_139)">
<path d="M30 4C40.4675 4 46.439 6.35045 49.449 12C39.5 17 38.5 18 34.7 21C30.9 24 28.5 27 25.5 31C23 34.5 20.5 39 18.5024 46.5C10.7144 43.85 8 37.5029 8 26C8 10.033 13.23 4 30 4Z" fill="white"/>
</g>
<mask id="mask1_3_139" style="mask-type:alpha" maskUnits="userSpaceOnUse" x="8" y="4" width="42" height="43">
<path d="M30 4C40.4675 4 46.439 6.35045 49.449 12C39.5 17 38.5 18 34.7 21C30.9 24 28.5 27 25.5 31C23 34.5 20.5 39 18.5024 46.5C10.7144 43.85 8 37.5029 8 26C8 10.033 13.23 4 30 4Z" fill="white"/>
</mask>
<g mask="url(#mask1_3_139)">
<path d="M26.9996 -2V48C40.8073 48 52 36.8071 52 23.0004C52 9.19201 40.8071 -2 26.9996 -2Z" fill="#273375"/>
<path d="M26.9996 -2C13.1929 -2 2 9.19244 2 22.9999C2 36.8067 13.1929 47.9996 26.9996 47.9996C40.8071 47.9996 40.8071 -2 26.9996 -2Z" fill="#273375"/>
<path d="M19.1451 36.3233L20.831 34.2216L18.2266 34.6934L17.323 32.1705L16.3409 34.6934L13.6819 34.2216L15.3718 36.277L13.6172 38.3301L16.2915 37.9101L17.1935 40.3808L18.176 37.9113L20.9036 38.3987L19.1451 36.3233Z" fill="#F3F4F5"/>
<path d="M39.0723 38.1797L40.0283 36.9887L38.552 37.256L38.0401 35.8266L37.4835 37.256L35.9767 36.9887L36.9344 38.1528L35.9404 39.3169L37.4555 39.0785L37.9666 40.4779L38.5232 39.0793L40.069 39.3556L39.0723 38.1797Z" fill="#F3F4F5"/>
<path d="M39.0723 11.8637L40.0283 10.6724L38.552 10.9399L38.0401 9.51059L37.4835 10.9399L35.9767 10.6724L36.9344 11.8372L35.9404 13.0005L37.4555 12.7625L37.9666 14.1626L38.5232 12.7632L40.069 13.0392L39.0723 11.8637Z" fill="#F3F4F5"/>
<path d="M45.257 18.6713L46.2123 17.48L44.7368 17.7476L44.2248 16.3183L43.6683 17.7476L42.1607 17.48L43.1183 18.6449L42.1244 19.8085L43.6395 19.5701L44.1506 20.9703L44.7072 19.5709L46.2529 19.8469L45.257 18.6713Z" fill="#F3F4F5"/>
<path d="M33.7224 21.6978L34.6785 20.5068L33.2022 20.7745L32.6902 19.3451L32.1337 20.7745L30.6273 20.5068L31.5846 21.6709L30.5909 22.8349L32.106 22.5969L32.6172 23.9959L33.1737 22.5978L34.7196 22.8737L33.7224 21.6978Z" fill="#F3F4F5"/>
<path d="M7.25041 7.68097C6.85806 8.18659 6.48343 8.70572 6.12939 9.24058H8.80928L7.25041 7.68097Z" fill="#29337A"/>
<path d="M20.1604 22.9999H22.5687L20.1604 20.5916V22.9999Z" fill="#29337A"/>
<path d="M12.1775 2.86987C11.6039 3.29305 11.0517 3.74188 10.5168 4.21119L12.1775 5.87107V2.86987Z" fill="#29337A"/>
<path d="M9.76843 23H12.1775V20.5909L9.76843 23Z" fill="#29337A"/>
<path d="M26.9997 -2C24.6273 -2 22.3354 -1.66253 20.1604 -1.04471V5.87108L27.0004 -0.968601V-2H26.9997Z" fill="#29337A"/>
<path d="M27.0004 20.6951V17.2242H23.5294L27.0004 20.6951Z" fill="#29337A"/>
<path d="M3.0315 23L8.80844 17.2242H2.67852C2.23919 19.079 2 21.0113 2 23H3.0315Z" fill="#29337A"/>
<path d="M23.5271 9.24058H27.0003V5.76807L23.5271 9.24058Z" fill="#29337A"/>
<path d="M27.0004 21.4242V20.6951L23.5295 17.2242H27.0004V15.9811H21.5574L27.0004 21.4242Z" fill="white"/>
<path d="M8.80928 9.24057H6.1294C5.86181 9.64602 5.60752 10.0609 5.36316 10.4825H10.6278L7.50301 7.35849C7.41741 7.4651 7.33328 7.57288 7.24999 7.68055L8.80928 9.24057Z" fill="white"/>
<path d="M12.1775 20.5909V22.9999H13.4198V18.7724L9.1925 22.9999H9.76842L12.1775 20.5909Z" fill="white"/>
<path d="M20.1603 -1.04514C19.7415 -0.926278 19.3278 -0.796865 18.9185 -0.65753V7.68961L27.0003 -0.391842V-0.967762L20.1603 5.87065V-1.04514Z" fill="white"/>
<path d="M12.1336 17.2242L12.1775 17.1804L13.3763 15.9816H3.00612C2.88652 16.3917 2.77716 16.8058 2.67847 17.2242H8.80838L3.03145 23H6.35756L12.1336 17.2242Z" fill="white"/>
<path d="M3.03149 23L8.80842 17.2242L3.03149 23Z" fill="white"/>
<path d="M27.0004 10.4829V9.24056H23.5271L27.0004 5.76804V2.44278L18.96 10.4829H27.0004Z" fill="white"/>
<path d="M27.0003 5.76807L23.527 9.24058L27.0003 5.76807Z" fill="white"/>
<path d="M12.1775 5.87151L10.5169 4.21162C9.92797 4.72917 9.36261 5.27384 8.82458 5.8447L12.1775 9.19761L12.2131 9.23393L13.4198 10.4407V2.01413C12.9975 2.28847 12.5818 2.57147 12.1779 2.86988V5.87151H12.1775Z" fill="white"/>
<path d="M20.1604 20.5917L22.5687 22.9999H25.7416L18.9181 16.1769V22.9999H20.1604V20.5917Z" fill="white"/>
<path d="M12.1775 9.1976L12.213 9.23388L12.1775 9.1976Z" fill="#D32030"/>
<path d="M22.7992 17.2242L21.5574 15.9816H27.0004V10.4829H18.96L18.9185 10.5251V10.4829H18.96L27.0004 2.44321V-0.391839L18.9181 7.69004V-0.657104C16.9646 0.010439 15.1211 0.911158 13.4194 2.01444V10.4405L13.4625 10.4828H13.4194V10.4405L12.2127 9.23392L12.2198 9.24099H12.1776V9.19792L8.82464 5.84501C8.36441 6.33215 7.9235 6.83661 7.50307 7.35922L10.6278 10.4832H5.36321C4.36844 12.198 3.57307 14.0406 3.00623 15.9819H13.3764L13.4194 15.9381V15.9819H13.3764L12.1776 17.1808V17.2246H12.1338L6.35756 23.0001H9.19261L13.4199 18.7724V23.0001H18.9185V16.1769L25.7417 23.0001H26.68C26.7869 22.8884 26.8959 22.7774 27.0008 22.6626V21.4242L22.7992 17.2242Z" fill="#D32030"/>
<path d="M18.9181 7.69003L27.0004 -0.391846L18.9181 7.69003Z" fill="#D32030"/>
<path d="M12.1774 17.2241V17.1799L12.1337 17.2241H12.1774Z" fill="#D32030"/>
<path d="M13.4198 15.9373L13.3765 15.9811H13.4198V15.9373Z" fill="#D32030"/>
<path d="M18.9181 10.5251L18.96 10.4829H18.9181V10.5251Z" fill="#D32030"/>
<path d="M12.1775 9.24053H12.2201L12.213 9.23388L12.1775 9.1976V9.24053Z" fill="#D32030"/>
<path d="M13.4627 10.4828L13.4198 10.4402V10.4828H13.4627Z" fill="#D32030"/>
</g>
<defs>
<filter id="filter0_d_3_139" x="0" y="0" width="60" height="60" filterUnits="userSpaceOnUse" color-interpolation-filters="sRGB">
<feFlood flood-opacity="0" result="BackgroundImageFix"/>
<feColorMatrix in="SourceAlpha" type="matrix" values="0 0 0 0 0 0 0 0 0 0 0 0 0 0 0 0 0 0 127 0" result="hardAlpha"/>
<feOffset dy="4"/>
<feGaussianBlur stdDeviation="4"/>
<feColorMatrix type="matrix" values="0 0 0 0 0 0 0 0 0 0 0 0 0 0 0 0 0 0 0.15 0"/>
<feBlend mode="normal" in2="BackgroundImageFix" result="effect1_dropShadow_3_139"/>
<feBlend mode="normal" in="SourceGraphic" in2="effect1_dropShadow_3_139" result="shape"/>
</filter>
<filter id="filter1_d_3_139" x="7" y="3" width="45.449" height="46.5" filterUnits="userSpaceOnUse" color-interpolation-filters="sRGB">
<feFlood flood-opacity="0" result="BackgroundImageFix"/>
<feColorMatrix in="SourceAlpha" type="matrix" values="0 0 0 0 0 0 0 0 0 0 0 0 0 0 0 0 0 0 127 0" result="hardAlpha"/>
<feOffset dx="1" dy="1"/>
<feGaussianBlur stdDeviation="1"/>
<feColorMatrix type="matrix" values="0 0 0 0 0 0 0 0 0 0 0 0 0 0 0 0 0 0 0.2 0"/>
<feBlend mode="normal" in2="BackgroundImageFix" result="effect1_dropShadow_3_139"/>
<feBlend mode="normal" in="SourceGraphic" in2="effect1_dropShadow_3_139" result="shape"/>
</filter>
</defs>
</svg>
