<?xml version="1.0" encoding="iso-8859-1"?>
<!-- Uploaded to: SVG Repo, www.svgrepo.com, Generator: SVG Repo Mixer Tools -->
<svg fill="#000000" height="800px" width="800px" version="1.1" id="Layer_1" xmlns="http://www.w3.org/2000/svg" xmlns:xlink="http://www.w3.org/1999/xlink" 
	 viewBox="0 0 512.011 512.011" xml:space="preserve">
<g>
	<g>
		<path d="M493.2,373.339l16.555-33.131c3.307-6.613,2.965-14.464-0.939-20.757c-3.904-6.272-10.752-10.112-18.155-10.112h-64
			v-20.288c2.816-2.731,5.824-5.291,8.235-8.299c6.379-7.936,11.563-16.789,15.403-26.347l60.181-150.464
			c2.624-6.592,1.813-14.037-2.133-19.904c-3.989-5.845-10.603-9.365-17.685-9.365H369.296c-7.659,0-14.72,4.096-18.517,10.752
			l-19.968,34.944c-21.056-15.253-46.869-24.363-74.816-24.363c-27.797,0-53.483,9.003-74.496,24.128l-20.267-34.709
			c-3.797-6.656-10.859-10.752-18.517-10.752H21.328c-7.083,0-13.675,3.52-17.664,9.365c-3.947,5.867-4.757,13.312-2.133,19.904
			l60.203,150.485c3.819,9.536,9.003,18.389,15.36,26.304c2.411,3.008,5.44,5.589,8.235,8.32v20.288h-64
			c-7.381,0-14.251,3.84-18.133,10.112c-3.904,6.293-4.245,14.144-0.939,20.757l16.555,33.131L2.256,406.469
			c-3.307,6.613-2.965,14.464,0.939,20.757c3.883,6.272,10.752,10.112,18.133,10.112h106.667c11.797,0,21.333-9.557,21.333-21.333
			v-21.333h213.333v21.333c0,11.776,9.557,21.333,21.333,21.333h106.667c7.403,0,14.251-3.84,18.155-10.112
			c3.904-6.293,4.245-14.144,0.939-20.757L493.2,373.339z M235.301,201.968l20.693-41.963l20.715,41.963l43.285,4.587
			l-30.485,34.795l3.925,25.323h-74.859l3.925-25.323l-30.507-34.795L235.301,201.968z M124.731,266.672
			c-5.717-3.627-10.539-7.872-14.379-12.651c-3.733-4.651-6.763-9.856-9.024-15.467L52.837,117.339h77.504l19.84,34.752
			c-10.347,15.189-17.387,32.725-20.416,51.605c-0.149,0.917-0.277,1.835-0.405,2.773c-0.811,5.739-1.365,11.563-1.365,17.536
			c0,7.232,0.704,14.4,1.92,21.44c0.128,0.661,0.384,1.323,0.512,1.984c1.237,6.549,2.987,12.971,5.248,19.243H124.731z
			 M383.995,330.672v21.333h-256v-21.333v-21.333h43.157h0.512h168.683h0.512h43.136V330.672z M401.637,254.064
			c-3.819,4.757-8.64,8.981-14.357,12.608h-10.944c2.261-6.272,4.011-12.693,5.248-19.243c0.128-0.661,0.384-1.323,0.512-1.984
			c1.216-7.04,1.899-14.208,1.899-21.44c0-5.952-0.533-11.776-1.344-17.515c-0.128-0.939-0.256-1.877-0.427-2.816
			c-3.029-18.859-10.048-36.395-20.395-51.584l19.84-34.752h77.504l-48.491,121.216
			C408.421,244.165,405.392,249.371,401.637,254.064z"/>
	</g>
</g>
</svg>