<svg width="60" height="60" viewBox="0 0 60 60" fill="none" xmlns="http://www.w3.org/2000/svg">
<g filter="url(#filter0_d_3_142)">
<path d="M30 4C46.77 4 52 10.033 52 26C52 41.967 46.77 48 30 48C13.23 48 8 41.967 8 26C8 10.033 13.23 4 30 4Z" fill="#F4F4F4"/>
</g>
<mask id="mask0_3_142" style="mask-type:alpha" maskUnits="userSpaceOnUse" x="8" y="4" width="44" height="44">
<path d="M30 4C46.77 4 52 10.033 52 26C52 41.967 46.77 48 30 48C13.23 48 8 41.967 8 26C8 10.033 13.23 4 30 4Z" fill="#F4F4F4"/>
</mask>
<g mask="url(#mask0_3_142)">
<path d="M15 7H99V52H15V7Z" fill="white"/>
<path d="M15 7H99V10.462H15V7ZM15 13.923H99V17.385H15V13.923ZM15 20.846H99V24.308H15V20.846ZM15 27.769H99V31.231H15V27.769ZM15 34.692H99V38.154H15V34.692ZM15 41.615H99V45.077H15V41.615ZM15 48.538H99V52H15V48.538Z" fill="#B22234"/>
<path d="M15 7H47V32H15V7Z" fill="#3C3B6E"/>
<path d="M18.276 8L19.058 10.618L17.01 9H19.541L17.493 10.618L18.276 8Z" fill="white"/>
<path d="M18.276 13.065L19.058 15.683L17.01 14.065H19.541L17.493 15.683L18.276 13.065Z" fill="white"/>
<path d="M18.276 18.13L19.058 20.748L17.01 19.13H19.541L17.493 20.748L18.276 18.13Z" fill="white"/>
<path d="M18.276 23.196L19.058 25.814L17.01 24.196H19.541L17.493 25.814L18.276 23.196Z" fill="white"/>
<path d="M18.276 28.262L19.058 30.88L17.01 29.262H19.541L17.493 30.88L18.276 28.262Z" fill="white"/>
<path d="M21.016 10.533L21.798 13.151L19.75 11.533H22.281L20.233 13.151L21.016 10.533Z" fill="white"/>
<path d="M21.016 15.598L21.798 18.216L19.75 16.598H22.281L20.233 18.216L21.016 15.598Z" fill="white"/>
<path d="M21.016 20.663L21.798 23.281L19.75 21.663H22.281L20.233 23.281L21.016 20.663Z" fill="white"/>
<path d="M21.016 25.729L21.798 28.347L19.75 26.729H22.281L20.233 28.347L21.016 25.729Z" fill="white"/>
<path d="M23.756 8L24.538 10.618L22.49 9H25.021L22.973 10.618L23.756 8Z" fill="white"/>
<path d="M23.756 13.065L24.538 15.683L22.49 14.065H25.021L22.973 15.683L23.756 13.065Z" fill="white"/>
<path d="M23.756 18.13L24.538 20.748L22.49 19.13H25.021L22.973 20.748L23.756 18.13Z" fill="white"/>
<path d="M23.756 23.196L24.538 25.814L22.49 24.196H25.021L22.973 25.814L23.756 23.196Z" fill="white"/>
<path d="M23.756 28.262L24.538 30.88L22.49 29.262H25.021L22.973 30.88L23.756 28.262Z" fill="white"/>
<path d="M26.496 10.533L27.278 13.151L25.23 11.533H27.761L25.713 13.151L26.496 10.533Z" fill="white"/>
<path d="M26.496 15.598L27.278 18.216L25.23 16.598H27.761L25.713 18.216L26.496 15.598Z" fill="white"/>
<path d="M26.496 20.663L27.278 23.281L25.23 21.663H27.761L25.713 23.281L26.496 20.663Z" fill="white"/>
<path d="M26.496 25.729L27.278 28.347L25.23 26.729H27.761L25.713 28.347L26.496 25.729Z" fill="white"/>
<path d="M29.235 8L30.017 10.618L27.969 9H30.5L28.452 10.618L29.235 8Z" fill="white"/>
<path d="M29.235 13.065L30.017 15.683L27.969 14.065H30.5L28.452 15.683L29.235 13.065Z" fill="white"/>
<path d="M29.235 18.13L30.017 20.748L27.969 19.13H30.5L28.452 20.748L29.235 18.13Z" fill="white"/>
<path d="M29.235 23.196L30.017 25.814L27.969 24.196H30.5L28.452 25.814L29.235 23.196Z" fill="white"/>
<path d="M29.235 28.262L30.017 30.88L27.969 29.262H30.5L28.452 30.88L29.235 28.262Z" fill="white"/>
<path d="M31.975 10.533L32.757 13.151L30.709 11.533H33.24L31.192 13.151L31.975 10.533Z" fill="white"/>
<path d="M31.975 15.598L32.757 18.216L30.709 16.598H33.24L31.192 18.216L31.975 15.598Z" fill="white"/>
<path d="M31.975 20.663L32.757 23.281L30.709 21.663H33.24L31.192 23.281L31.975 20.663Z" fill="white"/>
<path d="M31.975 25.729L32.757 28.347L30.709 26.729H33.24L31.192 28.347L31.975 25.729Z" fill="white"/>
<path d="M34.715 8L35.497 10.618L33.449 9H35.98L33.932 10.618L34.715 8Z" fill="white"/>
<path d="M34.715 13.065L35.497 15.683L33.449 14.065H35.98L33.932 15.683L34.715 13.065Z" fill="white"/>
<path d="M34.715 18.13L35.497 20.748L33.449 19.13H35.98L33.932 20.748L34.715 18.13Z" fill="white"/>
<path d="M34.715 23.196L35.497 25.814L33.449 24.196H35.98L33.932 25.814L34.715 23.196Z" fill="white"/>
<path d="M34.715 28.262L35.497 30.88L33.449 29.262H35.98L33.932 30.88L34.715 28.262Z" fill="white"/>
<path d="M37.455 10.533L38.237 13.151L36.189 11.533H38.72L36.672 13.151L37.455 10.533Z" fill="white"/>
<path d="M37.455 15.598L38.237 18.216L36.189 16.598H38.72L36.672 18.216L37.455 15.598Z" fill="white"/>
<path d="M37.455 20.663L38.237 23.281L36.189 21.663H38.72L36.672 23.281L37.455 20.663Z" fill="white"/>
<path d="M37.455 25.729L38.237 28.347L36.189 26.729H38.72L36.672 28.347L37.455 25.729Z" fill="white"/>
<path d="M40.193 8L40.975 10.618L38.927 9H41.458L39.41 10.618L40.193 8Z" fill="white"/>
<path d="M40.193 13.065L40.975 15.683L38.927 14.065H41.458L39.41 15.683L40.193 13.065Z" fill="white"/>
<path d="M40.193 18.13L40.975 20.748L38.927 19.13H41.458L39.41 20.748L40.193 18.13Z" fill="white"/>
<path d="M40.193 23.196L40.975 25.814L38.927 24.196H41.458L39.41 25.814L40.193 23.196Z" fill="white"/>
<path d="M40.193 28.262L40.975 30.88L38.927 29.262H41.458L39.41 30.88L40.193 28.262Z" fill="white"/>
<path d="M42.933 10.533L43.715 13.151L41.667 11.533H44.198L42.15 13.151L42.933 10.533Z" fill="white"/>
<path d="M42.933 15.598L43.715 18.216L41.667 16.598H44.198L42.15 18.216L42.933 15.598Z" fill="white"/>
<path d="M42.933 20.663L43.715 23.281L41.667 21.663H44.198L42.15 23.281L42.933 20.663Z" fill="white"/>
<path d="M42.933 25.729L43.715 28.347L41.667 26.729H44.198L42.15 28.347L42.933 25.729Z" fill="white"/>
<path d="M45.673 8L46.455 10.618L44.407 9H46.938L44.89 10.618L45.673 8Z" fill="white"/>
<path d="M45.673 13.065L46.455 15.683L44.407 14.065H46.938L44.89 15.683L45.673 13.065Z" fill="white"/>
<path d="M45.673 18.13L46.455 20.748L44.407 19.13H46.938L44.89 20.748L45.673 18.13Z" fill="white"/>
<path d="M45.673 23.196L46.455 25.814L44.407 24.196H46.938L44.89 25.814L45.673 23.196Z" fill="white"/>
<path d="M45.673 28.262L46.455 30.88L44.407 29.262H46.938L44.89 30.88L45.673 28.262Z" fill="white"/>
</g>
<g filter="url(#filter1_d_3_142)">
<path d="M30 4C40.4675 4 46.439 6.35045 49.449 12C39.5 17 38.5 18 34.7 21C30.9 24 28.5 27 25.5 31C23 34.5 20.5 39 18.5024 46.5C10.7144 43.85 8 37.5029 8 26C8 10.033 13.23 4 30 4Z" fill="white"/>
</g>
<mask id="mask1_3_142" style="mask-type:alpha" maskUnits="userSpaceOnUse" x="8" y="4" width="42" height="43">
<path d="M30 4C40.4675 4 46.439 6.35045 49.449 12C39.5 17 38.5 18 34.7 21C30.9 24 28.5 27 25.5 31C23 34.5 20.5 39 18.5024 46.5C10.7144 43.85 8 37.5029 8 26C8 10.033 13.23 4 30 4Z" fill="white"/>
</mask>
<g mask="url(#mask1_3_142)">
<rect x="7" y="3" width="44" height="44" fill="#043BAB"/>
<path fill-rule="evenodd" clip-rule="evenodd" d="M21.2101 10.948L20.069 11.2823L20.4032 10.1411L20.069 9L21.2101 9.33423L22.3513 9L22.017 10.1411L22.3513 11.2823L21.2101 10.948ZM21.2101 27.086L20.069 27.4203L20.4032 26.2791L20.069 25.138L21.2101 25.4722L22.3513 25.138L22.017 26.2791L22.3513 27.4203L21.2101 27.086ZM29.2791 19.017L28.138 19.3513L28.4722 18.2101L28.138 17.069L29.2791 17.4032L30.4203 17.069L30.086 18.2101L30.4203 19.3513L29.2791 19.017ZM13.1411 19.017L12 19.3513L12.3342 18.2101L12 17.069L13.1411 17.4032L14.2823 17.069L13.948 18.2101L14.2823 19.3513L13.1411 19.017ZM28.1981 14.9825L27.057 15.3168L27.3912 14.1756L27.057 13.0345L28.1981 13.3687L29.3392 13.0345L29.005 14.1756L29.3392 15.3168L28.1981 14.9825ZM14.2222 23.0515L13.081 23.3858L13.4153 22.2446L13.081 21.1035L14.2222 21.4377L15.3633 21.1035L15.0291 22.2446L15.3633 23.3858L14.2222 23.0515ZM25.2446 12.0291L24.1035 12.3633L24.4377 11.2222L24.1035 10.081L25.2446 10.4153L26.3858 10.081L26.0515 11.2222L26.3858 12.3633L25.2446 12.0291ZM17.1756 26.005L16.0345 26.3392L16.3687 25.1981L16.0345 24.057L17.1756 24.3912L18.3168 24.057L17.9825 25.1981L18.3168 26.3392L17.1756 26.005ZM28.1981 23.0515L27.057 23.3858L27.3912 22.2446L27.057 21.1035L28.1981 21.4377L29.3392 21.1035L29.005 22.2446L29.3392 23.3858L28.1981 23.0515ZM14.2222 14.9825L13.081 15.3168L13.4153 14.1756L13.081 13.0345L14.2222 13.3687L15.3633 13.0345L15.0291 14.1756L15.3633 15.3168L14.2222 14.9825ZM25.2446 26.005L24.1035 26.3392L24.4377 25.1981L24.1035 24.057L25.2446 24.3912L26.3858 24.057L26.0515 25.1981L26.3858 26.3392L25.2446 26.005ZM17.1756 12.0291L16.0345 12.3633L16.3687 11.2222L16.0345 10.081L17.1756 10.4153L18.3168 10.081L17.9825 11.2222L18.3168 12.3633L17.1756 12.0291Z" fill="#FFD429"/>
</g>
<defs>
<filter id="filter0_d_3_142" x="0" y="0" width="60" height="60" filterUnits="userSpaceOnUse" color-interpolation-filters="sRGB">
<feFlood flood-opacity="0" result="BackgroundImageFix"/>
<feColorMatrix in="SourceAlpha" type="matrix" values="0 0 0 0 0 0 0 0 0 0 0 0 0 0 0 0 0 0 127 0" result="hardAlpha"/>
<feOffset dy="4"/>
<feGaussianBlur stdDeviation="4"/>
<feColorMatrix type="matrix" values="0 0 0 0 0 0 0 0 0 0 0 0 0 0 0 0 0 0 0.15 0"/>
<feBlend mode="normal" in2="BackgroundImageFix" result="effect1_dropShadow_3_142"/>
<feBlend mode="normal" in="SourceGraphic" in2="effect1_dropShadow_3_142" result="shape"/>
</filter>
<filter id="filter1_d_3_142" x="7" y="3" width="45.449" height="46.5" filterUnits="userSpaceOnUse" color-interpolation-filters="sRGB">
<feFlood flood-opacity="0" result="BackgroundImageFix"/>
<feColorMatrix in="SourceAlpha" type="matrix" values="0 0 0 0 0 0 0 0 0 0 0 0 0 0 0 0 0 0 127 0" result="hardAlpha"/>
<feOffset dx="1" dy="1"/>
<feGaussianBlur stdDeviation="1"/>
<feColorMatrix type="matrix" values="0 0 0 0 0 0 0 0 0 0 0 0 0 0 0 0 0 0 0.2 0"/>
<feBlend mode="normal" in2="BackgroundImageFix" result="effect1_dropShadow_3_142"/>
<feBlend mode="normal" in="SourceGraphic" in2="effect1_dropShadow_3_142" result="shape"/>
</filter>
</defs>
</svg>
