<?xml version="1.0" encoding="iso-8859-1"?>
<!-- Uploaded to: SVG Repo, www.svgrepo.com, Generator: SVG Repo Mixer Tools -->
<svg height="800px" width="800px" version="1.1" id="Layer_1" xmlns="http://www.w3.org/2000/svg" xmlns:xlink="http://www.w3.org/1999/xlink" 
	 viewBox="0 0 392.469 392.469" xml:space="preserve">
<path style="fill:#FFFFFF;" d="M219.087,159.871H32.711c-6.012,0-10.925,4.848-10.925,10.925v147.135
	c0,6.012,4.848,10.925,10.925,10.925h15.192c2.909,0,5.689,1.164,7.758,3.232s3.168,4.848,3.168,7.822l-0.129,19.071l34.909-27.669
	c1.939-1.552,4.331-2.392,6.788-2.392h118.756c6.012,0,10.925-4.848,10.925-10.925v-147.2
	C230.012,164.72,225.099,159.871,219.087,159.871z"/>
<path style="fill:#FFC10D;" d="M359.822,21.787h-186.44c-6.012,0-10.925,4.848-10.925,10.925v105.309h56.566
	c17.455,0,31.677,13.705,32.582,30.901h40.469c2.457,0,4.849,0.84,6.788,2.392l34.909,27.669l-0.129-19.071
	c0-2.909,1.099-5.689,3.168-7.822c2.004-2.069,4.848-3.232,7.758-3.232h15.257c6.012,0,10.925-4.848,10.925-10.925V32.712
	C370.747,26.7,365.834,21.787,359.822,21.787z"/>
<path style="fill:#56ACE0;" d="M219.087,159.871H32.711c-6.012,0-10.925,4.848-10.925,10.925v37.107h48.743
	c6.012,0,10.925,4.848,10.925,10.925c0,6.012-4.848,10.925-10.925,10.925H21.786v29.996h30.578c6.012,0,10.925,4.848,10.925,10.925
	c0,6.012-4.848,10.925-10.925,10.925H21.786v36.202c0,6.012,4.848,10.925,10.925,10.925h15.192c4.202,0,10.925,3.943,10.925,11.055
	l-0.129,19.071l34.909-27.669c1.939-1.552,4.331-2.392,6.788-2.392h118.756c6.012,0,10.925-4.848,10.925-10.925V170.797
	C230.012,164.72,225.099,159.871,219.087,159.871z"/>
<g>
	<path style="fill:#194F82;" d="M132.008,206.869c7.37,0,13.317,5.947,13.317,13.317c0,6.012,4.848,10.925,10.925,10.925
		c6.077,0,10.925-4.848,10.925-10.925c0-15.515-10.214-28.768-24.242-33.358v-5.56c0-6.012-4.848-10.925-10.925-10.925
		s-10.925,4.848-10.925,10.925v5.56c-14.093,4.655-24.178,17.842-24.178,33.358c0,19.394,15.774,35.168,35.168,35.168
		c-0.259,0-0.065,0,0.065,0c6.723,0.711,13.317,6.271,13.317,13.123c0,7.37-5.947,13.317-13.317,13.317s-13.317-5.947-13.317-13.317
		c0-6.012-4.848-10.925-10.925-10.925c-6.077,0-10.925,4.848-10.925,10.925c0,15.515,10.214,28.768,24.178,33.358v5.495
		c0,6.012,4.848,10.925,10.925,10.925s10.925-4.848,10.925-10.925v-5.495c14.093-4.655,24.242-17.842,24.242-33.358
		c0-19.394-17.067-35.103-36.396-35.103c0.259,0,0.065,0-0.065,0c-6.723-0.711-11.96-6.335-11.96-13.188
		C118.626,212.882,124.638,206.869,132.008,206.869z"/>
	<path style="fill:#194F82;" d="M322.392,50.36c3.556-4.848,2.521-11.636-2.263-15.192c-4.848-3.62-11.636-2.521-15.192,2.263
		l-22.691,30.578l-22.691-30.578c-3.556-4.848-10.408-5.883-15.192-2.263c-4.848,3.556-5.883,10.408-2.263,15.192l29.349,39.564
		v7.952h-20.299c-6.012,0-10.925,4.848-10.925,10.925c0,6.012,4.848,10.925,10.925,10.925h20.299v14.739
		c0,6.012,4.848,10.925,10.925,10.925c6.012,0,10.925-4.848,10.925-10.925v-14.739H313.6c6.012,0,10.925-4.848,10.925-10.925
		c0-6.012-4.848-10.925-10.925-10.925h-20.299v-7.952L322.392,50.36z"/>
	<path style="fill:#194F82;" d="M359.822,0.001h-186.44c-18.036,0-32.711,14.675-32.711,32.711v105.309H32.711
		C14.675,138.086,0,152.696,0,170.797v147.135c0,18.036,14.675,32.711,32.711,32.711h4.267L36.59,381.48
		c-0.065,4.202,2.327,8.016,6.077,9.891c3.814,1.681,7.564,1.552,11.572-1.228l49.842-39.564h115.006
		c18.036,0,32.711-14.675,32.711-32.711V190.772h36.525l49.842,39.564c3.685,2.78,7.628,2.909,11.572,1.228
		c3.814-1.875,6.206-5.689,6.077-9.891l-0.323-30.901h4.267c18.036,0,32.711-14.675,32.711-32.711V32.712
		C392.533,14.676,377.859,0.001,359.822,0.001z M230.012,317.867c0,6.012-4.848,10.925-10.925,10.925H100.396
		c-2.457,0-4.848,0.84-6.788,2.392l-34.909,27.669l0.065-18.877c0-6.206-4.978-11.313-11.248-11.313H32.711
		c-6.012,0-10.925-4.848-10.925-10.925V170.797c0-6.012,4.848-10.925,10.925-10.925h186.376c6.012,0,10.925,4.848,10.925,10.925
		v147.135h0V317.867z M370.747,158.126c0,6.012-4.848,10.925-10.925,10.925H344.63c-2.909,0-5.689,1.164-7.758,3.232
		s-3.168,4.848-3.168,7.822l0.129,19.071l-34.909-27.669c-1.939-1.551-4.331-2.392-6.788-2.392h-40.469
		c-0.905-17.261-15.192-30.901-32.582-30.901h-56.566V32.712c0-6.012,4.848-10.925,10.925-10.925h186.376
		c6.012,0,10.925,4.848,10.925,10.925V158.126L370.747,158.126z"/>
</g>
</svg>