<svg width="60" height="60" viewBox="0 0 60 60" fill="none" xmlns="http://www.w3.org/2000/svg">
<g filter="url(#filter0_d_11_7499)">
<path d="M30 4C46.77 4 52 10.033 52 26C52 41.967 46.77 48 30 48C13.23 48 8 41.967 8 26C8 10.033 13.23 4 30 4Z" fill="#F4F4F4"/>
</g>
<mask id="mask0_11_7499" style="mask-type:alpha" maskUnits="userSpaceOnUse" x="8" y="4" width="44" height="44">
<path d="M30 4C46.77 4 52 10.033 52 26C52 41.967 46.77 48 30 48C13.23 48 8 41.967 8 26C8 10.033 13.23 4 30 4Z" fill="#F4F4F4"/>
</mask>
<g mask="url(#mask0_11_7499)">
<path d="M15 7H99V52H15V7Z" fill="white"/>
<path d="M15 7H99V10.462H15V7ZM15 13.923H99V17.385H15V13.923ZM15 20.846H99V24.308H15V20.846ZM15 27.769H99V31.231H15V27.769ZM15 34.692H99V38.154H15V34.692ZM15 41.615H99V45.077H15V41.615ZM15 48.538H99V52H15V48.538Z" fill="#B22234"/>
<path d="M15 7H47V32H15V7Z" fill="#3C3B6E"/>
<path d="M18.276 8L19.058 10.618L17.01 9H19.541L17.493 10.618L18.276 8Z" fill="white"/>
<path d="M18.276 13.065L19.058 15.683L17.01 14.065H19.541L17.493 15.683L18.276 13.065Z" fill="white"/>
<path d="M18.276 18.13L19.058 20.748L17.01 19.13H19.541L17.493 20.748L18.276 18.13Z" fill="white"/>
<path d="M18.276 23.196L19.058 25.814L17.01 24.196H19.541L17.493 25.814L18.276 23.196Z" fill="white"/>
<path d="M18.276 28.262L19.058 30.88L17.01 29.262H19.541L17.493 30.88L18.276 28.262Z" fill="white"/>
<path d="M21.016 10.533L21.798 13.151L19.75 11.533H22.281L20.233 13.151L21.016 10.533Z" fill="white"/>
<path d="M21.016 15.598L21.798 18.216L19.75 16.598H22.281L20.233 18.216L21.016 15.598Z" fill="white"/>
<path d="M21.016 20.663L21.798 23.281L19.75 21.663H22.281L20.233 23.281L21.016 20.663Z" fill="white"/>
<path d="M21.016 25.729L21.798 28.347L19.75 26.729H22.281L20.233 28.347L21.016 25.729Z" fill="white"/>
<path d="M23.756 8L24.538 10.618L22.49 9H25.021L22.973 10.618L23.756 8Z" fill="white"/>
<path d="M23.756 13.065L24.538 15.683L22.49 14.065H25.021L22.973 15.683L23.756 13.065Z" fill="white"/>
<path d="M23.756 18.13L24.538 20.748L22.49 19.13H25.021L22.973 20.748L23.756 18.13Z" fill="white"/>
<path d="M23.756 23.196L24.538 25.814L22.49 24.196H25.021L22.973 25.814L23.756 23.196Z" fill="white"/>
<path d="M23.756 28.262L24.538 30.88L22.49 29.262H25.021L22.973 30.88L23.756 28.262Z" fill="white"/>
<path d="M26.496 10.533L27.278 13.151L25.23 11.533H27.761L25.713 13.151L26.496 10.533Z" fill="white"/>
<path d="M26.496 15.598L27.278 18.216L25.23 16.598H27.761L25.713 18.216L26.496 15.598Z" fill="white"/>
<path d="M26.496 20.663L27.278 23.281L25.23 21.663H27.761L25.713 23.281L26.496 20.663Z" fill="white"/>
<path d="M26.496 25.729L27.278 28.347L25.23 26.729H27.761L25.713 28.347L26.496 25.729Z" fill="white"/>
<path d="M29.235 8L30.017 10.618L27.969 9H30.5L28.452 10.618L29.235 8Z" fill="white"/>
<path d="M29.235 13.065L30.017 15.683L27.969 14.065H30.5L28.452 15.683L29.235 13.065Z" fill="white"/>
<path d="M29.235 18.13L30.017 20.748L27.969 19.13H30.5L28.452 20.748L29.235 18.13Z" fill="white"/>
<path d="M29.235 23.196L30.017 25.814L27.969 24.196H30.5L28.452 25.814L29.235 23.196Z" fill="white"/>
<path d="M29.235 28.262L30.017 30.88L27.969 29.262H30.5L28.452 30.88L29.235 28.262Z" fill="white"/>
<path d="M31.975 10.533L32.757 13.151L30.709 11.533H33.24L31.192 13.151L31.975 10.533Z" fill="white"/>
<path d="M31.975 15.598L32.757 18.216L30.709 16.598H33.24L31.192 18.216L31.975 15.598Z" fill="white"/>
<path d="M31.975 20.663L32.757 23.281L30.709 21.663H33.24L31.192 23.281L31.975 20.663Z" fill="white"/>
<path d="M31.975 25.729L32.757 28.347L30.709 26.729H33.24L31.192 28.347L31.975 25.729Z" fill="white"/>
<path d="M34.715 8L35.497 10.618L33.449 9H35.98L33.932 10.618L34.715 8Z" fill="white"/>
<path d="M34.715 13.065L35.497 15.683L33.449 14.065H35.98L33.932 15.683L34.715 13.065Z" fill="white"/>
<path d="M34.715 18.13L35.497 20.748L33.449 19.13H35.98L33.932 20.748L34.715 18.13Z" fill="white"/>
<path d="M34.715 23.196L35.497 25.814L33.449 24.196H35.98L33.932 25.814L34.715 23.196Z" fill="white"/>
<path d="M34.715 28.262L35.497 30.88L33.449 29.262H35.98L33.932 30.88L34.715 28.262Z" fill="white"/>
<path d="M37.455 10.533L38.237 13.151L36.189 11.533H38.72L36.672 13.151L37.455 10.533Z" fill="white"/>
<path d="M37.455 15.598L38.237 18.216L36.189 16.598H38.72L36.672 18.216L37.455 15.598Z" fill="white"/>
<path d="M37.455 20.663L38.237 23.281L36.189 21.663H38.72L36.672 23.281L37.455 20.663Z" fill="white"/>
<path d="M37.455 25.729L38.237 28.347L36.189 26.729H38.72L36.672 28.347L37.455 25.729Z" fill="white"/>
<path d="M40.193 8L40.975 10.618L38.927 9H41.458L39.41 10.618L40.193 8Z" fill="white"/>
<path d="M40.193 13.065L40.975 15.683L38.927 14.065H41.458L39.41 15.683L40.193 13.065Z" fill="white"/>
<path d="M40.193 18.13L40.975 20.748L38.927 19.13H41.458L39.41 20.748L40.193 18.13Z" fill="white"/>
<path d="M40.193 23.196L40.975 25.814L38.927 24.196H41.458L39.41 25.814L40.193 23.196Z" fill="white"/>
<path d="M40.193 28.262L40.975 30.88L38.927 29.262H41.458L39.41 30.88L40.193 28.262Z" fill="white"/>
<path d="M42.933 10.533L43.715 13.151L41.667 11.533H44.198L42.15 13.151L42.933 10.533Z" fill="white"/>
<path d="M42.933 15.598L43.715 18.216L41.667 16.598H44.198L42.15 18.216L42.933 15.598Z" fill="white"/>
<path d="M42.933 20.663L43.715 23.281L41.667 21.663H44.198L42.15 23.281L42.933 20.663Z" fill="white"/>
<path d="M42.933 25.729L43.715 28.347L41.667 26.729H44.198L42.15 28.347L42.933 25.729Z" fill="white"/>
<path d="M45.673 8L46.455 10.618L44.407 9H46.938L44.89 10.618L45.673 8Z" fill="white"/>
<path d="M45.673 13.065L46.455 15.683L44.407 14.065H46.938L44.89 15.683L45.673 13.065Z" fill="white"/>
<path d="M45.673 18.13L46.455 20.748L44.407 19.13H46.938L44.89 20.748L45.673 18.13Z" fill="white"/>
<path d="M45.673 23.196L46.455 25.814L44.407 24.196H46.938L44.89 25.814L45.673 23.196Z" fill="white"/>
<path d="M45.673 28.262L46.455 30.88L44.407 29.262H46.938L44.89 30.88L45.673 28.262Z" fill="white"/>
</g>
<g filter="url(#filter1_d_11_7499)">
<path d="M30 4C40.4675 4 46.439 6.35045 49.449 12C39.5 17 38.5 18 34.7 21C30.9 24 28.5 27 25.5 31C23 34.5 20.5 39 18.5024 46.5C10.7144 43.85 8 37.5029 8 26C8 10.033 13.23 4 30 4Z" fill="white"/>
</g>
<mask id="mask1_11_7499" style="mask-type:alpha" maskUnits="userSpaceOnUse" x="8" y="4" width="42" height="43">
<path d="M30 4C40.4675 4 46.439 6.35045 49.449 12C39.5 17 38.5 18 34.7 21C30.9 24 28.5 27 25.5 31C23 34.5 20.5 39 18.5024 46.5C10.7144 43.85 8 37.5029 8 26C8 10.033 13.23 4 30 4Z" fill="white"/>
</mask>
<g mask="url(#mask1_11_7499)">
<path d="M26.9996 -2V48C40.8073 48 52 36.8071 52 23.0004C52 9.19201 40.8071 -2 26.9996 -2Z" fill="#273375"/>
<path d="M26.9996 -2C13.1929 -2 2 9.19244 2 22.9999C2 36.8067 13.1929 47.9996 26.9996 47.9996C40.8071 47.9996 40.8071 -2 26.9996 -2Z" fill="#273375"/>
<path d="M7.25041 7.68097C6.85806 8.18659 6.48343 8.70572 6.12939 9.24058H8.80928L7.25041 7.68097Z" fill="#29337A"/>
<path d="M20.1604 23H22.5687L20.1604 20.5917V23Z" fill="#29337A"/>
<path d="M12.1775 2.86987C11.6039 3.29305 11.0517 3.74188 10.5168 4.21119L12.1775 5.87107V2.86987Z" fill="#29337A"/>
<path d="M9.76849 23H12.1775V20.5909L9.76849 23Z" fill="#29337A"/>
<path d="M26.9997 -2C24.6273 -2 22.3354 -1.66253 20.1604 -1.04471V5.87108L27.0004 -0.968601V-2H26.9997Z" fill="#29337A"/>
<path d="M27.0004 20.6951V17.2242H23.5294L27.0004 20.6951Z" fill="#29337A"/>
<path d="M3.0315 23L8.80844 17.2242H2.67852C2.23919 19.079 2 21.0113 2 23H3.0315Z" fill="#29337A"/>
<path d="M23.5271 9.24058H27.0003V5.76807L23.5271 9.24058Z" fill="#29337A"/>
<path d="M27.0004 21.4242V20.6951L23.5294 17.2242H27.0004V15.9811H21.5573L27.0004 21.4242Z" fill="white"/>
<path d="M8.80928 9.24061H6.1294C5.86181 9.64605 5.60752 10.0609 5.36316 10.4825H10.6278L7.50301 7.35852C7.41741 7.46513 7.33328 7.57291 7.24999 7.68058L8.80928 9.24061Z" fill="white"/>
<path d="M12.1775 20.5909V22.9999H13.4198V18.7723L9.19257 22.9999H9.76849L12.1775 20.5909Z" fill="white"/>
<path d="M20.1604 -1.04514C19.7415 -0.926278 19.3279 -0.796865 18.9185 -0.65753V7.68961L27.0004 -0.391842V-0.967762L20.1604 5.87065V-1.04514Z" fill="white"/>
<path d="M12.1337 17.2242L12.1775 17.1804L13.3763 15.9816H3.00618C2.88658 16.3917 2.77722 16.8058 2.67853 17.2242H8.80844L3.03151 23H6.35762L12.1337 17.2242Z" fill="white"/>
<path d="M3.03149 23L8.80842 17.2242L3.03149 23Z" fill="white"/>
<path d="M27.0004 10.4829V9.24056H23.5271L27.0004 5.76804V2.44278L18.96 10.4829H27.0004Z" fill="white"/>
<path d="M27.0004 5.76807L23.527 9.24058L27.0004 5.76807Z" fill="white"/>
<path d="M12.1775 5.87151L10.5169 4.21162C9.92797 4.72917 9.36261 5.27384 8.82458 5.8447L12.1775 9.19761L12.2131 9.23393L13.4198 10.4407V2.01413C12.9975 2.28847 12.5818 2.57147 12.1779 2.86988V5.87151H12.1775Z" fill="white"/>
<path d="M20.1604 20.5917L22.5687 22.9999H25.7416L18.9181 16.1769V22.9999H20.1604V20.5917Z" fill="white"/>
<path d="M12.1775 9.19763L12.213 9.23392L12.1775 9.19763Z" fill="#D32030"/>
<path d="M22.7992 17.2242L21.5573 15.9816H27.0004V10.4829H18.96L18.9185 10.5251V10.4829H18.96L27.0004 2.44321V-0.391839L18.9181 7.69004V-0.657104C16.9645 0.010439 15.1211 0.911158 13.4194 2.01444V10.4405L13.4624 10.4828H13.4194V10.4405L12.2126 9.23392L12.2197 9.24099H12.1775V9.19792L8.82458 5.84501C8.36435 6.33215 7.92344 6.83661 7.503 7.35922L10.6277 10.4832H5.36315C4.36838 12.198 3.57301 14.0406 3.00616 15.9819H13.3763L13.4194 15.9381V15.9819H13.3763L12.1775 17.1808V17.2246H12.1337L6.3575 23.0001H9.19255L13.4198 18.7724V23.0001H18.9185V16.1769L25.7416 23.0001H26.6799C26.7868 22.8884 26.8959 22.7774 27.0008 22.6626V21.4242L22.7992 17.2242Z" fill="#BE3030"/>
<path d="M18.9181 7.69003L27.0004 -0.391846L18.9181 7.69003Z" fill="#D32030"/>
<path d="M12.1774 17.2241V17.1799L12.1337 17.2241H12.1774Z" fill="#D32030"/>
<path d="M13.4198 15.9373L13.3764 15.9811H13.4198V15.9373Z" fill="#D32030"/>
<path d="M18.9181 10.5251L18.96 10.4829H18.9181V10.5251Z" fill="#D32030"/>
<path d="M12.1775 9.24056H12.2201L12.213 9.23391L12.1775 9.19763V9.24056Z" fill="#D32030"/>
<path d="M13.4627 10.4828L13.4198 10.4402V10.4828H13.4627Z" fill="#D32030"/>
<path d="M39.3358 8.42023V10.0841L42.6594 8.42023H39.3358Z" fill="white"/>
<path d="M39.9704 10.3729L38.9982 9.02637L42.6676 8.42023L39.9704 10.3729Z" fill="white"/>
<path d="M39.3367 8.42023V10.0841L36.0131 8.42023H39.3367Z" fill="white"/>
<path d="M38.6971 10.3729L39.6694 9.02637L36 8.42023L38.6971 10.3729Z" fill="white"/>
<path d="M40.3614 9.16479L38.7789 9.67737L41.3866 12.3298L40.3614 9.16479Z" fill="white"/>
<path d="M38.6981 10.3731L39.6704 9.02661L41.3831 12.3299L38.6981 10.3731Z" fill="white"/>
<path d="M38.3105 9.165L39.893 9.67758L39.3357 6.00818L38.3105 9.165Z" fill="white"/>
<path d="M40.3614 9.16496L38.7789 9.67754L39.3363 6L40.3614 9.16496Z" fill="white"/>
<path d="M38.3115 9.16479L39.894 9.67737L37.2864 12.3298L38.3115 9.16479Z" fill="white"/>
<path d="M39.9713 10.3731L38.999 9.02661L37.2864 12.3299L39.9713 10.3731Z" fill="white"/>
<path d="M39.3358 8.79047V9.88885L41.5326 8.79047H39.3358Z" fill="#C8102E"/>
<path d="M39.7518 10.08L39.109 9.19321L41.5336 8.79047L39.7518 10.08Z" fill="#C8102E"/>
<path d="M39.336 8.79047V9.88885L37.1393 8.79047H39.336Z" fill="#C8102E"/>
<path d="M38.9172 10.08L39.5599 9.19321L37.1354 8.79047L38.9172 10.08Z" fill="#C8102E"/>
<path d="M40.0155 9.28284L38.97 9.62049L40.6908 11.3698L40.0155 9.28284Z" fill="#C8102E"/>
<path d="M38.9169 10.0801L39.5596 9.19324L40.6946 11.3737L38.9169 10.0801Z" fill="#C8102E"/>
<path d="M38.653 9.2828L39.6984 9.62045L39.3323 7.18774L38.653 9.2828Z" fill="#C8102E"/>
<path d="M40.0155 9.2828L38.97 9.62045L39.3361 7.18774L40.0155 9.2828Z" fill="#C8102E"/>
<path d="M38.653 9.28284L39.6985 9.62049L37.9777 11.3698L38.653 9.28284Z" fill="#C8102E"/>
<path d="M39.7514 10.0801L39.1086 9.19324L37.9736 11.3737L39.7514 10.0801Z" fill="#C8102E"/>
<path d="M51.1792 14.1089V15.5897L48.2217 14.1089H51.1792Z" fill="white"/>
<path d="M50.6178 15.8419L51.4883 14.6499L48.2217 14.1089L50.6178 15.8419Z" fill="white"/>
<path d="M50.2644 14.7682L51.672 15.2238L49.3491 17.5833L50.2644 14.7682Z" fill="white"/>
<path d="M51.7449 15.8422L50.8744 14.6502L49.3529 17.5874L51.7449 15.8422Z" fill="white"/>
<path d="M51.1798 14.475V15.3903L49.3491 14.475H51.1798Z" fill="#C8102E"/>
<path d="M50.838 15.5493L51.371 14.8089L49.3491 14.4713L50.838 15.5493Z" fill="#C8102E"/>
<path d="M32.3319 16.6355V18.2993L35.6555 16.6355H32.3319Z" fill="white"/>
<path d="M32.9623 18.5882L31.99 17.2416L35.6594 16.6355L32.9623 18.5882Z" fill="white"/>
<path d="M32.3313 16.6355V18.2993L29.0077 16.6355H32.3313Z" fill="white"/>
<path d="M31.6971 18.5882L32.6694 17.2416L29 16.6355L31.6971 18.5882Z" fill="white"/>
<path d="M33.3576 17.3797L31.7751 17.8923L34.3828 20.5447L33.3576 17.3797Z" fill="white"/>
<path d="M31.6976 18.588L32.6699 17.2415L34.3826 20.5448L31.6976 18.588Z" fill="white"/>
<path d="M31.2988 17.3799L32.8813 17.8924L32.324 14.2149L31.2988 17.3799Z" fill="white"/>
<path d="M33.3576 17.3799L31.7751 17.8924L32.3325 14.2149L33.3576 17.3799Z" fill="white"/>
<path d="M31.2986 17.3797L32.8811 17.8923L30.2734 20.5447L31.2986 17.3797Z" fill="white"/>
<path d="M32.9623 18.588L31.99 17.2415L30.2773 20.5448L32.9623 18.588Z" fill="white"/>
<path d="M32.3319 17.0016V18.1L34.5287 17.0016H32.3319Z" fill="#C8102E"/>
<path d="M32.7507 18.2953L32.1079 17.4085L34.5325 17.0057L32.7507 18.2953Z" fill="#C8102E"/>
<path d="M32.332 17.0016V18.1L30.1353 17.0016H32.332Z" fill="#C8102E"/>
<path d="M31.9094 18.2953L32.5521 17.4085L30.1276 17.0057L31.9094 18.2953Z" fill="#C8102E"/>
<path d="M33.0077 17.4977L31.9581 17.8353L33.6789 19.5846L33.0077 17.4977Z" fill="#C8102E"/>
<path d="M31.9089 18.2949L32.5517 17.4081L33.6867 19.5886L31.9089 18.2949Z" fill="#C8102E"/>
<path d="M31.6528 17.4977L32.6983 17.8354L32.3322 15.4026L31.6528 17.4977Z" fill="#C8102E"/>
<path d="M33.0077 17.4977L31.9581 17.8354L32.3243 15.4026L33.0077 17.4977Z" fill="#C8102E"/>
<path d="M31.6521 17.4977L32.6976 17.8353L30.9686 19.5846L31.6521 17.4977Z" fill="#C8102E"/>
<path d="M32.7514 18.2949L32.1086 17.4081L30.9736 19.5845L32.7514 18.2949Z" fill="#C8102E"/>
<path d="M42.4812 32.6635V34.5104L46.1709 32.6635H42.4812Z" fill="white"/>
<path d="M43.1856 34.8318L42.1035 33.3388L46.1757 32.6635L43.1856 34.8318Z" fill="white"/>
<path d="M42.482 32.6635V34.5104L38.7922 32.6635H42.482Z" fill="white"/>
<path d="M41.7782 34.8318L42.8603 33.3388L38.7922 32.6635L41.7782 34.8318Z" fill="white"/>
<path d="M43.6247 33.4893L41.8673 34.0588L44.7597 36.9959L43.6247 33.4893Z" fill="white"/>
<path d="M41.7775 34.8317L42.8596 33.3387L44.7634 37L41.7775 34.8317Z" fill="white"/>
<path d="M41.3391 33.4893L43.0965 34.0588L42.4822 29.9785L41.3391 33.4893Z" fill="white"/>
<path d="M43.6247 33.4893L41.8673 34.0588L42.4816 29.9785L43.6247 33.4893Z" fill="white"/>
<path d="M41.3387 33.4893L43.0961 34.0588L40.2037 36.9959L41.3387 33.4893Z" fill="white"/>
<path d="M43.1857 34.8317L42.1036 33.3387L40.1997 37L43.1857 34.8317Z" fill="white"/>
<path d="M42.4812 33.0297V34.3111L45.0441 33.0297H42.4812Z" fill="#C8102E"/>
<path d="M42.974 34.5389L42.2214 33.4975L45.0487 33.0297L42.974 34.5389Z" fill="#C8102E"/>
<path d="M42.4815 33.0297V34.3111L39.9186 33.0297H42.4815Z" fill="#C8102E"/>
<path d="M41.9893 34.5389L42.7419 33.4975L39.9146 33.0297L41.9893 34.5389Z" fill="#C8102E"/>
<path d="M43.2707 33.6072L42.0543 34.0018L44.068 36.044L43.2707 33.6072Z" fill="#C8102E"/>
<path d="M41.9895 34.5389L42.7421 33.4975L44.0602 36.04L41.9895 34.5389Z" fill="#C8102E"/>
<path d="M41.6923 33.6073L42.9086 34.0019L42.4855 31.1665L41.6923 33.6073Z" fill="#C8102E"/>
<path d="M43.2707 33.6073L42.0543 34.0019L42.4774 31.1665L43.2707 33.6073Z" fill="#C8102E"/>
<path d="M41.6924 33.6072L42.9087 34.0018L40.895 36.044L41.6924 33.6072Z" fill="#C8102E"/>
<path d="M42.9737 34.5389L42.2211 33.4975L40.9031 36.04L42.9737 34.5389Z" fill="#C8102E"/>
</g>
<defs>
<filter id="filter0_d_11_7499" x="0" y="0" width="60" height="60" filterUnits="userSpaceOnUse" color-interpolation-filters="sRGB">
<feFlood flood-opacity="0" result="BackgroundImageFix"/>
<feColorMatrix in="SourceAlpha" type="matrix" values="0 0 0 0 0 0 0 0 0 0 0 0 0 0 0 0 0 0 127 0" result="hardAlpha"/>
<feOffset dy="4"/>
<feGaussianBlur stdDeviation="4"/>
<feColorMatrix type="matrix" values="0 0 0 0 0 0 0 0 0 0 0 0 0 0 0 0 0 0 0.15 0"/>
<feBlend mode="normal" in2="BackgroundImageFix" result="effect1_dropShadow_11_7499"/>
<feBlend mode="normal" in="SourceGraphic" in2="effect1_dropShadow_11_7499" result="shape"/>
</filter>
<filter id="filter1_d_11_7499" x="7" y="3" width="45.449" height="46.5" filterUnits="userSpaceOnUse" color-interpolation-filters="sRGB">
<feFlood flood-opacity="0" result="BackgroundImageFix"/>
<feColorMatrix in="SourceAlpha" type="matrix" values="0 0 0 0 0 0 0 0 0 0 0 0 0 0 0 0 0 0 127 0" result="hardAlpha"/>
<feOffset dx="1" dy="1"/>
<feGaussianBlur stdDeviation="1"/>
<feColorMatrix type="matrix" values="0 0 0 0 0 0 0 0 0 0 0 0 0 0 0 0 0 0 0.2 0"/>
<feBlend mode="normal" in2="BackgroundImageFix" result="effect1_dropShadow_11_7499"/>
<feBlend mode="normal" in="SourceGraphic" in2="effect1_dropShadow_11_7499" result="shape"/>
</filter>
</defs>
</svg>
